<svg width="182" height="167" viewBox="0 0 182 167" fill="none" xmlns="http://www.w3.org/2000/svg">
<g clip-path="url(#clip0_405_8)">
<path d="M20.6172 0.217435C9.92465 2.26145 1.09178 9.91855 9.70764e-06 20.2226C-1.12761 30.8651 9.70764e-06 42.1399 9.70764e-06 52.8398V119.379C9.70764e-06 131.617 -3.36768 148.212 5.21355 158.52C14.4833 169.654 31.3927 167 44.7891 167H123.703H148.586C152.697 167 157.354 167.553 161.383 166.783C172.075 164.739 180.908 157.081 182 146.777C183.128 136.135 182 124.86 182 114.16V47.6211C182 35.3829 185.368 18.7882 176.786 8.48046C167.517 -2.65438 150.607 -9.61917e-06 137.211 -9.61917e-06H58.2969H33.4141C29.3029 -9.61917e-06 24.6465 -0.552814 20.6172 0.217435ZM85.3125 59.3633L80.3359 71.7578H88.8672L81.7578 87.4141L88.1563 88.0664C87.4539 89.8157 86.5089 93.1111 85.0755 94.4811C84.0253 95.4849 82.4165 95.2422 81.0469 95.2422C77.9476 95.2422 71.6853 96.4199 70.0274 93.2851C69.2669 91.8473 70.3583 90.0335 70.9753 88.7187C72.2646 85.9709 73.9772 83.1637 74.6484 80.2383C73.1018 80.2383 71.1473 80.5186 69.6719 80.0208C64.1418 78.1553 70.2933 69.998 71.5677 67.1914C72.4626 65.2207 73.5274 60.9389 75.4779 59.6894C78.2165 57.9352 82.3858 59.1513 85.3125 59.3633ZM29.1484 100.461C31.104 100.461 34.0094 100.994 35.1914 99.1562C36.4491 97.2008 35.5469 92.9005 35.5469 90.6758V69.1484C35.5469 67.1305 34.4365 60.971 36.3763 59.6894C37.9717 58.6355 44.6703 58.8585 45.3815 60.668C46.5455 63.6295 45.5 68.602 45.5 71.7578V92.6328C45.5 96.2102 46.1748 100.373 44.5521 103.723C43.0043 106.918 35.8051 109.771 32.2292 107.311C30.6557 106.228 29.5361 102.151 29.1484 100.461ZM137.211 59.3633V62.625C139.862 62.625 143.19 62.127 145.742 62.8424C154.257 65.2296 153.563 72.9032 153.563 79.5859C154.982 79.5859 156.438 79.4844 157.828 79.8034C165.999 81.6778 164.938 89.1736 164.938 95.2422C164.938 98.4753 165.599 102.302 163.279 105.027C160.722 108.03 156.538 107.637 152.852 107.637C151.706 107.637 149.821 107.97 148.823 107.311C146.958 106.078 146.134 102.415 145.742 100.461C148.079 100.461 152.296 101.195 154.155 99.5911C156.347 97.7006 155.449 90.3069 152.852 89.0449C151.475 88.3761 149.377 88.7187 147.875 88.7187H137.211V107.637H127.258V88.7187H117.305V79.5859H127.258V71.7578H120.859V62.625H127.258V59.3633H137.211ZM114.461 62.625V71.7578H108.773V99.1562H118.016V107.637H85.3125L89.1042 99.4824L98.1094 99.1562V71.7578H92.4219V62.625H114.461ZM154.984 71.7578C154.984 69.9038 154.617 67.675 155.221 65.8867C157.599 58.8459 169.167 64.5207 163.397 70.3444C162.741 71.0066 161.588 71.3301 160.672 71.5404C158.852 71.9579 156.847 71.7578 154.984 71.7578ZM29.1484 71.7578L26.1862 95.8945L21.3281 103.723L17.0625 93.2851L19.1953 71.7578H29.1484ZM61.8516 71.7578L63.9844 93.2851L59.7188 103.07H58.2969C54.4813 97.5269 53.9934 91.8092 53.3203 85.457C52.8424 80.9467 51.8984 76.2981 51.8984 71.7578H61.8516ZM137.211 71.7578V79.5859H143.609V71.7578H137.211ZM83.8906 99.1562L80.3359 107.637H64.6953L68.487 98.8301L73.9375 98.9388L83.8906 99.1562Z" fill="black"/>
</g>
<defs>
<clipPath id="clip0_405_8">
<rect width="182" height="167" fill="white"/>
</clipPath>
</defs>
</svg>
